<?xml version="1.0" encoding="UTF-8" standalone="no"?>
<!DOCTYPE svg PUBLIC "-//W3C//DTD SVG 1.1//EN"
 "http://www.w3.org/Graphics/SVG/1.1/DTD/svg11.dtd">
<!-- Generated by graphviz version 2.38.0 (20140413.2041)
 -->
<!-- Title: %3 Pages: 1 -->
<svg width="1333pt" height="1556pt"
 viewBox="0.00 0.00 1333.00 1556.00" xmlns="http://www.w3.org/2000/svg" xmlns:xlink="http://www.w3.org/1999/xlink">
<g id="graph0" class="graph" transform="scale(1 1) rotate(0) translate(4 1552)">
<title>%3</title>
<!-- 1767993557104 -->
<g id="node1" class="node"><title>1767993557104</title>
<ellipse fill="none" stroke="black" cx="1214" cy="-1446" rx="27" ry="18"/>
<text text-anchor="middle" x="1214" y="-1443.2" font-family="Times New Roman,serif" font-size="11.00">p_71</text>
</g>
<!-- 1767917877616 -->
<g id="node4" class="node"><title>1767917877616</title>
<ellipse fill="none" stroke="black" cx="960" cy="-1362" rx="27" ry="18"/>
<text text-anchor="middle" x="960" y="-1359.2" font-family="Times New Roman,serif" font-size="11.00">p_61</text>
</g>
<!-- 1767993557104&#45;&gt;1767917877616 -->
<g id="edge23" class="edge"><title>1767993557104&#45;&gt;1767917877616</title>
<path fill="none" stroke="black" d="M1191.26,-1435.92C1166.01,-1425.98 1123.92,-1409.9 1087,-1398 1056.2,-1388.08 1020.64,-1378.43 995.003,-1371.79"/>
<polygon fill="black" stroke="black" points="995.565,-1368.32 985.008,-1369.22 993.823,-1375.1 995.565,-1368.32"/>
<text text-anchor="middle" x="1140" y="-1401.2" font-family="Times New Roman,serif" font-size="11.00">skip_28</text>
</g>
<!-- 1767993558736 -->
<g id="node21" class="node"><title>1767993558736</title>
<ellipse fill="none" stroke="black" cx="1298" cy="-1362" rx="27" ry="18"/>
<text text-anchor="middle" x="1298" y="-1359.2" font-family="Times New Roman,serif" font-size="11.00">sink1</text>
</g>
<!-- 1767993557104&#45;&gt;1767993558736 -->
<g id="edge25" class="edge"><title>1767993557104&#45;&gt;1767993558736</title>
<path fill="none" stroke="black" d="M1231.31,-1432.01C1239.39,-1425.67 1248.97,-1417.76 1257,-1410 1264.55,-1402.71 1272.26,-1394.2 1278.93,-1386.44"/>
<polygon fill="black" stroke="black" points="1281.93,-1388.31 1285.69,-1378.41 1276.57,-1383.8 1281.93,-1388.31"/>
<text text-anchor="middle" x="1285" y="-1401.2" font-family="Times New Roman,serif" font-size="11.00">skip_29</text>
</g>
<!-- 1767993557200 -->
<g id="node2" class="node"><title>1767993557200</title>
<ellipse fill="none" stroke="black" cx="960" cy="-1194" rx="27" ry="18"/>
<text text-anchor="middle" x="960" y="-1191.2" font-family="Times New Roman,serif" font-size="11.00">p_91</text>
</g>
<!-- 1767993557296 -->
<g id="node3" class="node"><title>1767993557296</title>
<ellipse fill="none" stroke="black" cx="269" cy="-1110" rx="27" ry="18"/>
<text text-anchor="middle" x="269" y="-1107.2" font-family="Times New Roman,serif" font-size="11.00">p_111</text>
</g>
<!-- 1767993557200&#45;&gt;1767993557296 -->
<g id="edge17" class="edge"><title>1767993557200&#45;&gt;1767993557296</title>
<path fill="none" stroke="black" d="M933.335,-1189.84C826.451,-1177.15 428.86,-1129.97 305.645,-1115.35"/>
<polygon fill="black" stroke="black" points="305.928,-1111.86 295.585,-1114.15 305.103,-1118.81 305.928,-1111.86"/>
<text text-anchor="middle" x="680.5" y="-1149.2" font-family="Times New Roman,serif" font-size="11.00">init_loop_8</text>
</g>
<!-- 1767993557392 -->
<g id="node5" class="node"><title>1767993557392</title>
<ellipse fill="none" stroke="black" cx="323" cy="-942" rx="27" ry="18"/>
<text text-anchor="middle" x="323" y="-939.2" font-family="Times New Roman,serif" font-size="11.00">p_131</text>
</g>
<!-- 1767993557296&#45;&gt;1767993557392 -->
<g id="edge19" class="edge"><title>1767993557296&#45;&gt;1767993557392</title>
<path fill="none" stroke="black" d="M243.507,-1103.99C190.076,-1092.33 74.2886,-1060.32 112,-1008 132.582,-979.445 232.235,-958.406 286.91,-948.797"/>
<polygon fill="black" stroke="black" points="287.624,-952.225 296.887,-947.082 286.439,-945.326 287.624,-952.225"/>
<text text-anchor="middle" x="153" y="-1023.2" font-family="Times New Roman,serif" font-size="11.00">A_CANCELLED</text>
</g>
<!-- 1767993557296&#45;&gt;1767993557392 -->
<g id="edge27" class="edge"><title>1767993557296&#45;&gt;1767993557392</title>
<path fill="none" stroke="black" d="M255.476,-1094.17C238.878,-1074.07 214.712,-1037.34 230,-1008 242.767,-983.501 269.457,-966.336 290.984,-955.823"/>
<polygon fill="black" stroke="black" points="292.531,-958.964 300.139,-951.591 289.593,-952.61 292.531,-958.964"/>
<text text-anchor="middle" x="265.5" y="-1023.2" font-family="Times New Roman,serif" font-size="11.00">A_DECLINED</text>
</g>
<!-- 1767993557296&#45;&gt;1767993557392 -->
<g id="edge29" class="edge"><title>1767993557296&#45;&gt;1767993557392</title>
<path fill="none" stroke="black" d="M278.294,-1092.91C285.389,-1080.04 294.946,-1061.34 301,-1044 309.515,-1019.62 315.409,-990.73 318.938,-970.108"/>
<polygon fill="black" stroke="black" points="322.407,-970.58 320.569,-960.145 315.499,-969.448 322.407,-970.58"/>
<text text-anchor="middle" x="363.5" y="-1023.2" font-family="Times New Roman,serif" font-size="11.00">W_Valideren aanvraag</text>
</g>
<!-- 1767993557488 -->
<g id="node6" class="node"><title>1767993557488</title>
<ellipse fill="none" stroke="black" cx="471" cy="-1026" rx="27" ry="18"/>
<text text-anchor="middle" x="471" y="-1023.2" font-family="Times New Roman,serif" font-size="11.00">p_141</text>
</g>
<!-- 1767993557296&#45;&gt;1767993557488 -->
<g id="edge21" class="edge"><title>1767993557296&#45;&gt;1767993557488</title>
<path fill="none" stroke="black" d="M291.69,-1099.92C322.886,-1087.41 380.759,-1064.15 430,-1044 432.902,-1042.81 435.917,-1041.57 438.936,-1040.33"/>
<polygon fill="black" stroke="black" points="440.555,-1043.45 448.459,-1036.39 437.88,-1036.98 440.555,-1043.45"/>
<text text-anchor="middle" x="440.5" y="-1065.2" font-family="Times New Roman,serif" font-size="11.00">W_Completeren aanvraag</text>
</g>
<!-- 1767917879248 -->
<g id="node22" class="node"><title>1767917879248</title>
<ellipse fill="none" stroke="black" cx="960" cy="-1278" rx="27" ry="18"/>
<text text-anchor="middle" x="960" y="-1275.2" font-family="Times New Roman,serif" font-size="11.00">p_81</text>
</g>
<!-- 1767917877616&#45;&gt;1767917879248 -->
<g id="edge5" class="edge"><title>1767917877616&#45;&gt;1767917879248</title>
<path fill="none" stroke="black" d="M960,-1343.61C960,-1332.77 960,-1318.6 960,-1306.29"/>
<polygon fill="black" stroke="black" points="963.5,-1306.08 960,-1296.08 956.5,-1306.08 963.5,-1306.08"/>
<text text-anchor="middle" x="1007" y="-1317.2" font-family="Times New Roman,serif" font-size="11.00">W_Afhandelen leads</text>
</g>
<!-- 1767917877616&#45;&gt;1767917879248 -->
<g id="edge7" class="edge"><title>1767917877616&#45;&gt;1767917879248</title>
<path fill="none" stroke="black" d="M986.731,-1359.21C1009.09,-1356.14 1039.72,-1347.92 1055,-1326 1071.93,-1301.72 1030.07,-1289.4 996.626,-1283.59"/>
<polygon fill="black" stroke="black" points="997.016,-1280.11 986.59,-1281.99 995.914,-1287.02 997.016,-1280.11"/>
<text text-anchor="middle" x="1106" y="-1317.2" font-family="Times New Roman,serif" font-size="11.00">A_PREACCEPTED</text>
</g>
<!-- 1767917877616&#45;&gt;1767917879248 -->
<g id="edge11" class="edge"><title>1767917877616&#45;&gt;1767917879248</title>
<path fill="none" stroke="black" d="M933.025,-1359.58C889.089,-1356.63 805.14,-1348.18 787,-1326 783.623,-1321.87 783.623,-1318.13 787,-1314 803.829,-1293.43 877.299,-1284.66 922.912,-1281.15"/>
<polygon fill="black" stroke="black" points="923.302,-1284.63 933.025,-1280.42 922.799,-1277.65 923.302,-1284.63"/>
<text text-anchor="middle" x="801.5" y="-1317.2" font-family="Times New Roman,serif" font-size="11.00">skip_4</text>
</g>
<!-- 1767917877616&#45;&gt;1767917879248 -->
<g id="edge50" class="edge"><title>1767917877616&#45;&gt;1767917879248</title>
<path fill="none" stroke="black" d="M932.983,-1360.11C908.652,-1357.71 874.157,-1349.95 857,-1326 838.062,-1299.56 886.622,-1287.67 923.345,-1282.56"/>
<polygon fill="black" stroke="black" points="923.844,-1286.02 933.324,-1281.29 922.962,-1279.08 923.844,-1286.02"/>
<text text-anchor="middle" x="906.5" y="-1317.2" font-family="Times New Roman,serif" font-size="11.00">W_Beoordelen fraude</text>
</g>
<!-- 1767993557584 -->
<g id="node7" class="node"><title>1767993557584</title>
<ellipse fill="none" stroke="black" cx="475" cy="-858" rx="27" ry="18"/>
<text text-anchor="middle" x="475" y="-855.2" font-family="Times New Roman,serif" font-size="11.00">p_161</text>
</g>
<!-- 1767993557392&#45;&gt;1767993557584 -->
<g id="edge33" class="edge"><title>1767993557392&#45;&gt;1767993557584</title>
<path fill="none" stroke="black" d="M343.499,-929.941C369.677,-915.819 415.169,-891.277 445.183,-875.085"/>
<polygon fill="black" stroke="black" points="447.201,-877.974 454.34,-870.146 443.877,-871.813 447.201,-877.974"/>
<text text-anchor="middle" x="436" y="-897.2" font-family="Times New Roman,serif" font-size="11.00">init_loop_12</text>
</g>
<!-- 1767993557680 -->
<g id="node8" class="node"><title>1767993557680</title>
<ellipse fill="none" stroke="black" cx="163" cy="-186" rx="27" ry="18"/>
<text text-anchor="middle" x="163" y="-183.2" font-family="Times New Roman,serif" font-size="11.00">p_151</text>
</g>
<!-- 1767993557392&#45;&gt;1767993557680 -->
<g id="edge36" class="edge"><title>1767993557392&#45;&gt;1767993557680</title>
<path fill="none" stroke="black" d="M296.538,-938.383C230.184,-931.093 62,-907.802 62,-859 62,-859 62,-859 62,-269 62,-233.489 100.097,-210.667 129.496,-198.342"/>
<polygon fill="black" stroke="black" points="131.05,-201.491 139.064,-194.562 128.478,-194.981 131.05,-201.491"/>
<text text-anchor="middle" x="79" y="-561.2" font-family="Times New Roman,serif" font-size="11.00">skip_11</text>
</g>
<!-- 1767993557488&#45;&gt;1767993557392 -->
<g id="edge31" class="edge"><title>1767993557488&#45;&gt;1767993557392</title>
<path fill="none" stroke="black" d="M448.451,-1015.63C442.457,-1013.14 435.985,-1010.46 430,-1008 410.463,-999.954 404.392,-1000.4 386,-990 372.464,-982.346 358.496,-972.193 347.162,-963.283"/>
<polygon fill="black" stroke="black" points="349.047,-960.308 339.06,-956.774 344.663,-965.765 349.047,-960.308"/>
<text text-anchor="middle" x="403" y="-981.2" font-family="Times New Roman,serif" font-size="11.00">skip_10</text>
</g>
<!-- 1767993557488&#45;&gt;1767993557392 -->
<g id="edge35" class="edge"><title>1767993557488&#45;&gt;1767993557392</title>
<path fill="none" stroke="black" d="M457.952,-1010.18C448.313,-999.982 434.411,-986.745 420,-978 400.799,-966.348 377.123,-957.711 357.968,-951.932"/>
<polygon fill="black" stroke="black" points="358.709,-948.503 348.131,-949.092 356.768,-955.228 358.709,-948.503"/>
<text text-anchor="middle" x="472.5" y="-981.2" font-family="Times New Roman,serif" font-size="11.00">A_ACCEPTED</text>
</g>
<!-- 1767993557968 -->
<g id="node12" class="node"><title>1767993557968</title>
<ellipse fill="none" stroke="black" cx="463" cy="-270" rx="27" ry="18"/>
<text text-anchor="middle" x="463" y="-267.2" font-family="Times New Roman,serif" font-size="11.00">p_171</text>
</g>
<!-- 1767993557584&#45;&gt;1767993557968 -->
<g id="edge3" class="edge"><title>1767993557584&#45;&gt;1767993557968</title>
<path fill="none" stroke="black" d="M467.857,-840.428C465.507,-834.655 462.989,-828.097 461,-822 435.39,-743.501 448.236,-717.587 415,-642 399.618,-607.018 378.897,-606.628 368,-570 360.212,-543.822 376.432,-533.905 392,-486 417.936,-406.193 420.731,-385.011 449,-306 450.047,-303.075 451.186,-300.031 452.349,-297.014"/>
<polygon fill="black" stroke="black" points="455.633,-298.225 456.053,-287.639 449.123,-295.653 455.633,-298.225"/>
<text text-anchor="middle" x="404.5" y="-561.2" font-family="Times New Roman,serif" font-size="11.00">O_ACCEPTED</text>
</g>
<!-- 1767993557584&#45;&gt;1767993557968 -->
<g id="edge15" class="edge"><title>1767993557584&#45;&gt;1767993557968</title>
<path fill="none" stroke="black" d="M473.956,-839.976C471.037,-790.844 463,-644.559 463,-523 463,-523 463,-523 463,-353 463,-334.84 463,-314.418 463,-298.497"/>
<polygon fill="black" stroke="black" points="466.5,-298.277 463,-288.277 459.5,-298.277 466.5,-298.277"/>
<text text-anchor="middle" x="531.5" y="-561.2" font-family="Times New Roman,serif" font-size="11.00">W_Wijzigen contractgegevens</text>
</g>
<!-- 1767993557584&#45;&gt;1767993557968 -->
<g id="edge22" class="edge"><title>1767993557584&#45;&gt;1767993557968</title>
<path fill="none" stroke="black" d="M501.439,-854.139C543.513,-847.959 621,-829.218 621,-775 621,-775 621,-775 621,-353 621,-298.697 546.565,-280.307 499.876,-274.114"/>
<polygon fill="black" stroke="black" points="500.148,-270.621 489.803,-272.908 499.315,-277.572 500.148,-270.621"/>
<text text-anchor="middle" x="656.5" y="-561.2" font-family="Times New Roman,serif" font-size="11.00">O_DECLINED</text>
</g>
<!-- 1767993557584&#45;&gt;1767993557968 -->
<g id="edge24" class="edge"><title>1767993557584&#45;&gt;1767993557968</title>
<path fill="none" stroke="black" d="M501.601,-853.658C564.088,-845.067 715,-819.692 715,-775 715,-775 715,-775 715,-353 715,-308.254 569.513,-284.165 499.627,-275.175"/>
<polygon fill="black" stroke="black" points="499.849,-271.675 489.492,-273.909 498.981,-278.621 499.849,-271.675"/>
<text text-anchor="middle" x="754.5" y="-561.2" font-family="Times New Roman,serif" font-size="11.00">A_ACTIVATED</text>
</g>
<!-- 1767993557584&#45;&gt;1767993557968 -->
<g id="edge26" class="edge"><title>1767993557584&#45;&gt;1767993557968</title>
<path fill="none" stroke="black" d="M502.122,-856.291C583.012,-853.45 817,-839.645 817,-775 817,-775 817,-775 817,-353 817,-288.524 591.309,-274.733 500.34,-271.793"/>
<polygon fill="black" stroke="black" points="500.289,-268.29 490.19,-271.492 500.082,-275.287 500.289,-268.29"/>
<text text-anchor="middle" x="889.5" y="-561.2" font-family="Times New Roman,serif" font-size="11.00">W_Nabellen incomplete dossiers</text>
</g>
<!-- 1767993557584&#45;&gt;1767993557968 -->
<g id="edge28" class="edge"><title>1767993557584&#45;&gt;1767993557968</title>
<path fill="none" stroke="black" d="M502.06,-855.538C607.496,-849.488 985,-824.379 985,-775 985,-775 985,-775 985,-353 985,-303.856 619.266,-279.531 500.068,-272.908"/>
<polygon fill="black" stroke="black" points="500.142,-269.407 489.966,-272.356 499.76,-276.396 500.142,-269.407"/>
<text text-anchor="middle" x="1023" y="-561.2" font-family="Times New Roman,serif" font-size="11.00">A_APPROVED</text>
</g>
<!-- 1767993557584&#45;&gt;1767993557968 -->
<g id="edge32" class="edge"><title>1767993557584&#45;&gt;1767993557968</title>
<path fill="none" stroke="black" d="M501.954,-856.253C619.814,-852.636 1084,-834.609 1084,-775 1084,-775 1084,-775 1084,-353 1084,-293.773 634.295,-275.966 500.262,-271.974"/>
<polygon fill="black" stroke="black" points="500.18,-268.471 490.083,-271.68 499.977,-275.468 500.18,-268.471"/>
<text text-anchor="middle" x="1125" y="-561.2" font-family="Times New Roman,serif" font-size="11.00">A_REGISTERED</text>
</g>
<!-- 1767993558064 -->
<g id="node13" class="node"><title>1767993558064</title>
<ellipse fill="none" stroke="black" cx="256" cy="-522" rx="27" ry="18"/>
<text text-anchor="middle" x="256" y="-519.2" font-family="Times New Roman,serif" font-size="11.00">p_181</text>
</g>
<!-- 1767993557584&#45;&gt;1767993558064 -->
<g id="edge13" class="edge"><title>1767993557584&#45;&gt;1767993558064</title>
<path fill="none" stroke="black" d="M448.025,-854.569C383.091,-847.007 220.053,-817.358 174,-708 149.006,-648.65 201.847,-579.443 233.872,-544.924"/>
<polygon fill="black" stroke="black" points="236.759,-546.968 241.123,-537.313 231.691,-542.14 236.759,-546.968"/>
<text text-anchor="middle" x="191" y="-687.2" font-family="Times New Roman,serif" font-size="11.00">skip_14</text>
</g>
<!-- 1767993558160 -->
<g id="node14" class="node"><title>1767993558160</title>
<ellipse fill="none" stroke="black" cx="312" cy="-774" rx="42.8909" ry="18"/>
<text text-anchor="middle" x="312" y="-771.2" font-family="Times New Roman,serif" font-size="11.00">p_191p_211</text>
</g>
<!-- 1767993557584&#45;&gt;1767993558160 -->
<g id="edge30" class="edge"><title>1767993557584&#45;&gt;1767993558160</title>
<path fill="none" stroke="black" d="M450.017,-850.72C429.003,-844.888 398.547,-835.128 374,-822 361.092,-815.096 348.001,-805.615 337.196,-796.975"/>
<polygon fill="black" stroke="black" points="339.369,-794.231 329.42,-790.589 334.927,-799.64 339.369,-794.231"/>
<text text-anchor="middle" x="398.5" y="-813.2" font-family="Times New Roman,serif" font-size="11.00">tauSplit_15</text>
</g>
<!-- 1767993557776 -->
<g id="node9" class="node"><title>1767993557776</title>
<ellipse fill="none" stroke="black" cx="163" cy="-102" rx="27" ry="18"/>
<text text-anchor="middle" x="163" y="-99.2" font-family="Times New Roman,serif" font-size="11.00">p_121</text>
</g>
<!-- 1767993557680&#45;&gt;1767993557776 -->
<g id="edge38" class="edge"><title>1767993557680&#45;&gt;1767993557776</title>
<path fill="none" stroke="black" d="M180.012,-171.44C189.07,-162.473 197.5,-150.166 193,-138 191.252,-133.276 188.551,-128.759 185.47,-124.633"/>
<polygon fill="black" stroke="black" points="187.937,-122.131 178.798,-116.773 182.601,-126.661 187.937,-122.131"/>
<text text-anchor="middle" x="212" y="-141.2" font-family="Times New Roman,serif" font-size="11.00">skip_23</text>
</g>
<!-- 1767993557680&#45;&gt;1767993557776 -->
<g id="edge42" class="edge"><title>1767993557680&#45;&gt;1767993557776</title>
<path fill="none" stroke="black" d="M140.011,-176.388C128.492,-170.764 115.616,-162.172 109,-150 101.359,-135.942 115.058,-124.138 130.567,-115.875"/>
<polygon fill="black" stroke="black" points="132.282,-118.934 139.76,-111.429 129.234,-112.632 132.282,-118.934"/>
<text text-anchor="middle" x="149" y="-141.2" font-family="Times New Roman,serif" font-size="11.00">O_SENT_BACK</text>
</g>
<!-- 1767993557776&#45;&gt;1767993557296 -->
<g id="edge49" class="edge"><title>1767993557776&#45;&gt;1767993557296</title>
<path fill="none" stroke="black" d="M136.084,-104.539C89.7873,-108.797 0,-124.812 0,-185 0,-1027 0,-1027 0,-1027 0,-1074.93 158.236,-1097.57 231.985,-1105.53"/>
<polygon fill="black" stroke="black" points="231.915,-1109.04 242.224,-1106.59 232.641,-1102.07 231.915,-1109.04"/>
<text text-anchor="middle" x="17" y="-603.2" font-family="Times New Roman,serif" font-size="11.00">skip_24</text>
</g>
<!-- 1767993557872 -->
<g id="node11" class="node"><title>1767993557872</title>
<ellipse fill="none" stroke="black" cx="1181" cy="-18" rx="27" ry="18"/>
<text text-anchor="middle" x="1181" y="-15.2" font-family="Times New Roman,serif" font-size="11.00">p_101</text>
</g>
<!-- 1767993557776&#45;&gt;1767993557872 -->
<g id="edge43" class="edge"><title>1767993557776&#45;&gt;1767993557872</title>
<path fill="none" stroke="black" d="M189.706,-98.8488C329.991,-87.5489 981.415,-35.0766 1144.1,-21.9719"/>
<polygon fill="black" stroke="black" points="1144.42,-25.4582 1154.1,-21.1665 1143.85,-18.4808 1144.42,-25.4582"/>
<text text-anchor="middle" x="750" y="-57.2" font-family="Times New Roman,serif" font-size="11.00">skip_25</text>
</g>
<!-- 1767859999552 -->
<g id="node10" class="node"><title>1767859999552</title>
<ellipse fill="none" stroke="black" cx="960" cy="-1530" rx="30.8374" ry="18"/>
<text text-anchor="middle" x="960" y="-1527.2" font-family="Times New Roman,serif" font-size="11.00">source1</text>
</g>
<!-- 1767917878912 -->
<g id="node20" class="node"><title>1767917878912</title>
<ellipse fill="none" stroke="black" cx="960" cy="-1446" rx="27" ry="18"/>
<text text-anchor="middle" x="960" y="-1443.2" font-family="Times New Roman,serif" font-size="11.00">p_41</text>
</g>
<!-- 1767859999552&#45;&gt;1767917878912 -->
<g id="edge45" class="edge"><title>1767859999552&#45;&gt;1767917878912</title>
<path fill="none" stroke="black" d="M960,-1511.61C960,-1500.77 960,-1486.6 960,-1474.29"/>
<polygon fill="black" stroke="black" points="963.5,-1474.08 960,-1464.08 956.5,-1474.08 963.5,-1474.08"/>
<text text-anchor="middle" x="999.5" y="-1485.2" font-family="Times New Roman,serif" font-size="11.00">A_SUBMITTED</text>
</g>
<!-- 1767993557872&#45;&gt;1767993557104 -->
<g id="edge6" class="edge"><title>1767993557872&#45;&gt;1767993557104</title>
<path fill="none" stroke="black" d="M1198.93,-31.5548C1217.24,-45.9997 1243,-71.5519 1243,-101 1243,-1363 1243,-1363 1243,-1363 1243,-1382.88 1235.33,-1404.01 1227.88,-1419.83"/>
<polygon fill="black" stroke="black" points="1224.66,-1418.43 1223.34,-1428.94 1230.93,-1421.56 1224.66,-1418.43"/>
<text text-anchor="middle" x="1260" y="-729.2" font-family="Times New Roman,serif" font-size="11.00">skip_27</text>
</g>
<!-- 1767993557872&#45;&gt;1767993557200 -->
<g id="edge9" class="edge"><title>1767993557872&#45;&gt;1767993557200</title>
<path fill="none" stroke="black" d="M1181,-36.2771C1181,-52.8718 1181,-78.6493 1181,-101 1181,-1111 1181,-1111 1181,-1111 1181,-1149.96 1058.75,-1176.33 996.098,-1187.28"/>
<polygon fill="black" stroke="black" points="995.488,-1183.83 986.219,-1188.97 996.666,-1190.73 995.488,-1183.83"/>
<text text-anchor="middle" x="1198" y="-603.2" font-family="Times New Roman,serif" font-size="11.00">skip_26</text>
</g>
<!-- 1767993557968&#45;&gt;1767993557584 -->
<g id="edge18" class="edge"><title>1767993557968&#45;&gt;1767993557584</title>
<path fill="none" stroke="black" d="M436.007,-271.667C354.912,-274.394 119,-287.921 119,-353 119,-775 119,-775 119,-775 119,-839.898 346.5,-853.438 437.772,-856.259"/>
<polygon fill="black" stroke="black" points="437.855,-859.763 447.95,-856.546 438.053,-852.766 437.855,-859.763"/>
<text text-anchor="middle" x="136" y="-561.2" font-family="Times New Roman,serif" font-size="11.00">skip_21</text>
</g>
<!-- 1767993557968&#45;&gt;1767993557680 -->
<g id="edge20" class="edge"><title>1767993557968&#45;&gt;1767993557680</title>
<path fill="none" stroke="black" d="M438.45,-262.29C385.138,-247.718 258.663,-213.148 197.417,-196.407"/>
<polygon fill="black" stroke="black" points="198.038,-192.949 187.469,-193.688 196.192,-199.701 198.038,-192.949"/>
<text text-anchor="middle" x="348" y="-225.2" font-family="Times New Roman,serif" font-size="11.00">skip_22</text>
</g>
<!-- 1767993558544 -->
<g id="node18" class="node"><title>1767993558544</title>
<ellipse fill="none" stroke="black" cx="257" cy="-438" rx="27" ry="18"/>
<text text-anchor="middle" x="257" y="-435.2" font-family="Times New Roman,serif" font-size="11.00">p_231</text>
</g>
<!-- 1767993558064&#45;&gt;1767993558544 -->
<g id="edge1" class="edge"><title>1767993558064&#45;&gt;1767993558544</title>
<path fill="none" stroke="black" d="M274.131,-508.452C281.097,-502.537 288.268,-494.833 292,-486 296.183,-476.098 290.952,-466.364 283.364,-458.346"/>
<polygon fill="black" stroke="black" points="285.664,-455.706 275.936,-451.508 280.923,-460.856 285.664,-455.706"/>
<text text-anchor="middle" x="341" y="-477.2" font-family="Times New Roman,serif" font-size="11.00">W_Nabellen offertes</text>
</g>
<!-- 1767993558064&#45;&gt;1767993558544 -->
<g id="edge2" class="edge"><title>1767993558064&#45;&gt;1767993558544</title>
<path fill="none" stroke="black" d="M229.313,-518.701C192.325,-514.423 132.24,-502.891 153,-474 168.107,-452.977 196.48,-444.411 219.778,-441.001"/>
<polygon fill="black" stroke="black" points="220.219,-444.473 229.729,-439.802 219.382,-437.523 220.219,-444.473"/>
<text text-anchor="middle" x="194" y="-477.2" font-family="Times New Roman,serif" font-size="11.00">O_CANCELLED</text>
</g>
<!-- 1767993558064&#45;&gt;1767993558544 -->
<g id="edge44" class="edge"><title>1767993558064&#45;&gt;1767993558544</title>
<path fill="none" stroke="black" d="M254.552,-503.59C253.994,-494.731 253.581,-483.792 254,-474 254.109,-471.441 254.264,-468.779 254.445,-466.118"/>
<polygon fill="black" stroke="black" points="257.94,-466.317 255.242,-456.071 250.962,-465.763 257.94,-466.317"/>
<text text-anchor="middle" x="271" y="-477.2" font-family="Times New Roman,serif" font-size="11.00">skip_18</text>
</g>
<!-- 1767993558256 -->
<g id="node15" class="node"><title>1767993558256</title>
<ellipse fill="none" stroke="black" cx="260" cy="-690" rx="42.8909" ry="18"/>
<text text-anchor="middle" x="260" y="-687.2" font-family="Times New Roman,serif" font-size="11.00">p_191p_221</text>
</g>
<!-- 1767993558160&#45;&gt;1767993558256 -->
<g id="edge34" class="edge"><title>1767993558160&#45;&gt;1767993558256</title>
<path fill="none" stroke="black" d="M270.756,-768.62C251.053,-764.219 229.165,-755.446 217,-738 210.312,-728.408 216.484,-718.722 226.033,-710.655"/>
<polygon fill="black" stroke="black" points="228.292,-713.337 234.235,-704.566 224.12,-707.717 228.292,-713.337"/>
<text text-anchor="middle" x="252" y="-729.2" font-family="Times New Roman,serif" font-size="11.00">O_SELECTED</text>
</g>
<!-- 1767993558352 -->
<g id="node16" class="node"><title>1767993558352</title>
<ellipse fill="none" stroke="black" cx="363" cy="-690" rx="42.8909" ry="18"/>
<text text-anchor="middle" x="363" y="-687.2" font-family="Times New Roman,serif" font-size="11.00">p_201p_211</text>
</g>
<!-- 1767993558160&#45;&gt;1767993558352 -->
<g id="edge37" class="edge"><title>1767993558160&#45;&gt;1767993558352</title>
<path fill="none" stroke="black" d="M298.058,-756.687C291.827,-747.333 287.077,-735.583 293,-726 296.773,-719.896 309.349,-712.871 322.821,-706.723"/>
<polygon fill="black" stroke="black" points="324.431,-709.84 332.195,-702.63 321.63,-703.425 324.431,-709.84"/>
<text text-anchor="middle" x="310" y="-729.2" font-family="Times New Roman,serif" font-size="11.00">skip_17</text>
</g>
<!-- 1767993558160&#45;&gt;1767993558352 -->
<g id="edge39" class="edge"><title>1767993558160&#45;&gt;1767993558352</title>
<path fill="none" stroke="black" d="M322.321,-756.406C329.51,-744.847 339.23,-729.219 347.366,-716.137"/>
<polygon fill="black" stroke="black" points="350.385,-717.909 352.695,-707.569 344.441,-714.212 350.385,-717.909"/>
<text text-anchor="middle" x="377.5" y="-729.2" font-family="Times New Roman,serif" font-size="11.00">A_FINALIZED</text>
</g>
<!-- 1767993558448 -->
<g id="node17" class="node"><title>1767993558448</title>
<ellipse fill="none" stroke="black" cx="256" cy="-606" rx="42.8909" ry="18"/>
<text text-anchor="middle" x="256" y="-603.2" font-family="Times New Roman,serif" font-size="11.00">p_201p_221</text>
</g>
<!-- 1767993558256&#45;&gt;1767993558448 -->
<g id="edge46" class="edge"><title>1767993558256&#45;&gt;1767993558448</title>
<path fill="none" stroke="black" d="M227.952,-677.98C217.108,-672.54 206.187,-664.771 200,-654 192.947,-641.721 202.677,-631.218 215.901,-623.276"/>
<polygon fill="black" stroke="black" points="217.787,-626.236 224.954,-618.433 214.486,-620.063 217.787,-626.236"/>
<text text-anchor="middle" x="217" y="-645.2" font-family="Times New Roman,serif" font-size="11.00">skip_17</text>
</g>
<!-- 1767993558256&#45;&gt;1767993558448 -->
<g id="edge47" class="edge"><title>1767993558256&#45;&gt;1767993558448</title>
<path fill="none" stroke="black" d="M258.315,-671.925C257.812,-666.23 257.312,-659.846 257,-654 256.665,-647.735 256.441,-640.994 256.292,-634.628"/>
<polygon fill="black" stroke="black" points="259.788,-634.354 256.104,-624.42 252.789,-634.482 259.788,-634.354"/>
<text text-anchor="middle" x="293.5" y="-645.2" font-family="Times New Roman,serif" font-size="11.00">A_FINALIZED</text>
</g>
<!-- 1767993558352&#45;&gt;1767993558448 -->
<g id="edge40" class="edge"><title>1767993558352&#45;&gt;1767993558448</title>
<path fill="none" stroke="black" d="M354.09,-672.121C348.266,-662.342 339.911,-650.352 330,-642 320.491,-633.987 308.837,-627.363 297.615,-622.114"/>
<polygon fill="black" stroke="black" points="298.91,-618.86 288.348,-618.028 296.086,-625.265 298.91,-618.86"/>
<text text-anchor="middle" x="376" y="-645.2" font-family="Times New Roman,serif" font-size="11.00">O_SELECTED</text>
</g>
<!-- 1767993558448&#45;&gt;1767993558064 -->
<g id="edge41" class="edge"><title>1767993558448&#45;&gt;1767993558064</title>
<path fill="none" stroke="black" d="M256,-587.61C256,-576.774 256,-562.601 256,-550.291"/>
<polygon fill="black" stroke="black" points="259.5,-550.084 256,-540.084 252.5,-550.084 259.5,-550.084"/>
<text text-anchor="middle" x="280" y="-561.2" font-family="Times New Roman,serif" font-size="11.00">tauJoin_16</text>
</g>
<!-- 1767993558640 -->
<g id="node19" class="node"><title>1767993558640</title>
<ellipse fill="none" stroke="black" cx="309" cy="-354" rx="27" ry="18"/>
<text text-anchor="middle" x="309" y="-351.2" font-family="Times New Roman,serif" font-size="11.00">p_241</text>
</g>
<!-- 1767993558544&#45;&gt;1767993558640 -->
<g id="edge4" class="edge"><title>1767993558544&#45;&gt;1767993558640</title>
<path fill="none" stroke="black" d="M252.719,-419.955C251.294,-410.583 251.128,-399.056 256,-390 260.769,-381.135 268.877,-374.142 277.335,-368.813"/>
<polygon fill="black" stroke="black" points="279.152,-371.807 286.151,-363.853 275.72,-365.706 279.152,-371.807"/>
<text text-anchor="middle" x="273" y="-393.2" font-family="Times New Roman,serif" font-size="11.00">skip_19</text>
</g>
<!-- 1767993558544&#45;&gt;1767993558640 -->
<g id="edge8" class="edge"><title>1767993558544&#45;&gt;1767993558640</title>
<path fill="none" stroke="black" d="M272.455,-423.045C278.498,-417.009 285.132,-409.593 290,-402 294.021,-395.727 297.461,-388.464 300.263,-381.55"/>
<polygon fill="black" stroke="black" points="303.675,-382.421 303.908,-371.828 297.12,-379.964 303.675,-382.421"/>
<text text-anchor="middle" x="330.5" y="-393.2" font-family="Times New Roman,serif" font-size="11.00">O_CREATED</text>
</g>
<!-- 1767993558640&#45;&gt;1767993557968 -->
<g id="edge12" class="edge"><title>1767993558640&#45;&gt;1767993557968</title>
<path fill="none" stroke="black" d="M304.191,-336.076C302.486,-326.281 302.382,-314.29 309,-306 323.397,-287.963 385.455,-278.513 426.264,-274.156"/>
<polygon fill="black" stroke="black" points="426.795,-277.62 436.392,-273.132 426.091,-270.656 426.795,-277.62"/>
<text text-anchor="middle" x="326" y="-309.2" font-family="Times New Roman,serif" font-size="11.00">skip_20</text>
</g>
<!-- 1767993558640&#45;&gt;1767993557968 -->
<g id="edge16" class="edge"><title>1767993558640&#45;&gt;1767993557968</title>
<path fill="none" stroke="black" d="M323.429,-338.704C334.369,-328.491 350.176,-315.017 366,-306 385.514,-294.881 409.197,-286.254 428.277,-280.348"/>
<polygon fill="black" stroke="black" points="429.484,-283.64 438.067,-277.428 427.483,-276.932 429.484,-283.64"/>
<text text-anchor="middle" x="387.5" y="-309.2" font-family="Times New Roman,serif" font-size="11.00">O_SENT</text>
</g>
<!-- 1767917878912&#45;&gt;1767917877616 -->
<g id="edge48" class="edge"><title>1767917878912&#45;&gt;1767917877616</title>
<path fill="none" stroke="black" d="M960,-1427.61C960,-1416.77 960,-1402.6 960,-1390.29"/>
<polygon fill="black" stroke="black" points="963.5,-1390.08 960,-1380.08 956.5,-1390.08 963.5,-1390.08"/>
<text text-anchor="middle" x="1021.5" y="-1401.2" font-family="Times New Roman,serif" font-size="11.00">A_PARTLYSUBMITTED</text>
</g>
<!-- 1767917879248&#45;&gt;1767993557104 -->
<g id="edge10" class="edge"><title>1767917879248&#45;&gt;1767993557104</title>
<path fill="none" stroke="black" d="M986.989,-1280.68C1034.62,-1284.13 1131.03,-1293.5 1157,-1314 1189.57,-1339.7 1203.91,-1387.75 1209.94,-1417.96"/>
<polygon fill="black" stroke="black" points="1206.51,-1418.63 1211.74,-1427.84 1213.39,-1417.38 1206.51,-1418.63"/>
<text text-anchor="middle" x="1214.5" y="-1359.2" font-family="Times New Roman,serif" font-size="11.00">skip_5</text>
</g>
<!-- 1767917879248&#45;&gt;1767993557200 -->
<g id="edge14" class="edge"><title>1767917879248&#45;&gt;1767993557200</title>
<path fill="none" stroke="black" d="M960,-1259.61C960,-1248.77 960,-1234.6 960,-1222.29"/>
<polygon fill="black" stroke="black" points="963.5,-1222.08 960,-1212.08 956.5,-1222.08 963.5,-1222.08"/>
<text text-anchor="middle" x="984.5" y="-1233.2" font-family="Times New Roman,serif" font-size="11.00">init_loop_6</text>
</g>
</g>
</svg>
